<svg viewBox="0 0 200 40" xmlns="http://www.w3.org/2000/svg">
	<defs>
		<linearGradient id="perfectBackGrad" x1="0%" y1="0%" x2="100%" y2="0%">
			<stop offset="0%" style="stop-color:#111827;stop-opacity:1" />
			<stop offset="50%" style="stop-color:#1f2937;stop-opacity:1" />
			<stop offset="100%" style="stop-color:#374151;stop-opacity:1" />
		</linearGradient>
		<linearGradient id="perfectBorderGrad" x1="0%" y1="0%" x2="100%" y2="0%">
			<stop offset="0%" style="stop-color:#374151;stop-opacity:1" />
			<stop offset="50%" style="stop-color:#1f2937;stop-opacity:1" />
			<stop offset="100%" style="stop-color:#111827;stop-opacity:1" />
		</linearGradient>
		<!-- Clip path to constrain honeycomb pattern inside the border -->
		<clipPath id="innerClip">
			<rect x="2" y="2" width="196" height="36" rx="6"/>
		</clipPath>
	</defs>
	
	<!-- Base banner -->
	<rect width="200" height="40" fill="url(#perfectBackGrad)" stroke="url(#perfectBorderGrad)" stroke-width="2" rx="8"/>
	
	<!-- Perfect honeycomb with no gaps, clipped inside border -->
	<g opacity="0.15" stroke="#60a5fa" stroke-width="0.2" fill="none" clip-path="url(#innerClip)">
		<!-- Row 0 (y=0-3) -->
		<polygon points="-14,0 -11,-1.5 -8,0 -8,3 -11,4.5 -14,3"/>
		<polygon points="-8,0 -5,-1.5 -2,0 -2,3 -5,4.5 -8,3"/>
		<polygon points="-2,0 1,-1.5 4,0 4,3 1,4.5 -2,3"/>
		<polygon points="4,0 7,-1.5 10,0 10,3 7,4.5 4,3"/>
		<polygon points="10,0 13,-1.5 16,0 16,3 13,4.5 10,3"/>
		<polygon points="16,0 19,-1.5 22,0 22,3 19,4.5 16,3"/>
		<polygon points="22,0 25,-1.5 28,0 28,3 25,4.5 22,3"/>
		<polygon points="28,0 31,-1.5 34,0 34,3 31,4.5 28,3"/>
		<polygon points="34,0 37,-1.5 40,0 40,3 37,4.5 34,3"/>
		<polygon points="40,0 43,-1.5 46,0 46,3 43,4.5 40,3"/>
		<polygon points="46,0 49,-1.5 52,0 52,3 49,4.5 46,3"/>
		<polygon points="52,0 55,-1.5 58,0 58,3 55,4.5 52,3"/>
		<polygon points="58,0 61,-1.5 64,0 64,3 61,4.5 58,3"/>
		<polygon points="64,0 67,-1.5 70,0 70,3 67,4.5 64,3"/>
		<polygon points="70,0 73,-1.5 76,0 76,3 73,4.5 70,3"/>
		<polygon points="76,0 79,-1.5 82,0 82,3 79,4.5 76,3"/>
		<polygon points="82,0 85,-1.5 88,0 88,3 85,4.5 82,3"/>
		<polygon points="88,0 91,-1.5 94,0 94,3 91,4.5 88,3"/>
		<polygon points="94,0 97,-1.5 100,0 100,3 97,4.5 94,3"/>
		<polygon points="100,0 103,-1.5 106,0 106,3 103,4.5 100,3"/>
		<polygon points="106,0 109,-1.5 112,0 112,3 109,4.5 106,3"/>
		<polygon points="112,0 115,-1.5 118,0 118,3 115,4.5 112,3"/>
		<polygon points="118,0 121,-1.5 124,0 124,3 121,4.5 118,3"/>
		<polygon points="124,0 127,-1.5 130,0 130,3 127,4.5 124,3"/>
		<polygon points="130,0 133,-1.5 136,0 136,3 133,4.5 130,3"/>
		<polygon points="136,0 139,-1.5 142,0 142,3 139,4.5 136,3"/>
		<polygon points="142,0 145,-1.5 148,0 148,3 145,4.5 142,3"/>
		<polygon points="148,0 151,-1.5 154,0 154,3 151,4.5 148,3"/>
		<polygon points="154,0 157,-1.5 160,0 160,3 157,4.5 154,3"/>
		<polygon points="160,0 163,-1.5 166,0 166,3 163,4.5 160,3"/>
		<polygon points="166,0 169,-1.5 172,0 172,3 169,4.5 166,3"/>
		<polygon points="172,0 175,-1.5 178,0 178,3 175,4.5 172,3"/>
		<polygon points="178,0 181,-1.5 184,0 184,3 181,4.5 178,3"/>
		<polygon points="184,0 187,-1.5 190,0 190,3 187,4.5 184,3"/>
		<polygon points="190,0 193,-1.5 196,0 196,3 193,4.5 190,3"/>
		<polygon points="196,0 199,-1.5 202,0 202,3 199,4.5 196,3"/>
		<polygon points="202,0 205,-1.5 208,0 208,3 205,4.5 202,3"/>
		<polygon points="208,0 211,-1.5 214,0 214,3 211,4.5 208,3"/>
		<polygon points="214,0 217,-1.5 220,0 220,3 217,4.5 214,3"/>
		<polygon points="220,0 223,-1.5 226,0 226,3 223,4.5 220,3"/>
		<polygon points="226,0 229,-1.5 232,0 232,3 229,4.5 226,3"/>
		
		<!-- Row 1 (offset, y=4.5-7.5) -->
		<polygon points="-11,4.5 -8,3 -5,4.5 -5,7.5 -8,9 -11,7.5"/>
		<polygon points="-5,4.5 -2,3 1,4.5 1,7.5 -2,9 -5,7.5"/>
		<polygon points="1,4.5 4,3 7,4.5 7,7.5 4,9 1,7.5"/>
		<polygon points="7,4.5 10,3 13,4.5 13,7.5 10,9 7,7.5"/>
		<polygon points="13,4.5 16,3 19,4.5 19,7.5 16,9 13,7.5"/>
		<polygon points="19,4.5 22,3 25,4.5 25,7.5 22,9 19,7.5"/>
		<polygon points="25,4.5 28,3 31,4.5 31,7.5 28,9 25,7.5"/>
		<polygon points="31,4.5 34,3 37,4.5 37,7.5 34,9 31,7.5"/>
		<polygon points="37,4.5 40,3 43,4.5 43,7.5 40,9 37,7.5"/>
		<polygon points="43,4.5 46,3 49,4.5 49,7.5 46,9 43,7.5"/>
		<polygon points="49,4.5 52,3 55,4.5 55,7.5 52,9 49,7.5"/>
		<polygon points="55,4.5 58,3 61,4.5 61,7.5 58,9 55,7.5"/>
		<polygon points="61,4.5 64,3 67,4.5 67,7.5 64,9 61,7.5"/>
		<polygon points="67,4.5 70,3 73,4.5 73,7.5 70,9 67,7.5"/>
		<polygon points="73,4.5 76,3 79,4.5 79,7.5 76,9 73,7.5"/>
		<polygon points="79,4.5 82,3 85,4.5 85,7.5 82,9 79,7.5"/>
		<polygon points="85,4.5 88,3 91,4.5 91,7.5 88,9 85,7.5"/>
		<polygon points="91,4.5 94,3 97,4.5 97,7.5 94,9 91,7.5"/>
		<polygon points="97,4.5 100,3 103,4.5 103,7.5 100,9 97,7.5"/>
		<polygon points="103,4.5 106,3 109,4.5 109,7.5 106,9 103,7.5"/>
		<polygon points="109,4.5 112,3 115,4.5 115,7.5 112,9 109,7.5"/>
		<polygon points="115,4.5 118,3 121,4.5 121,7.5 118,9 115,7.5"/>
		<polygon points="121,4.5 124,3 127,4.5 127,7.5 124,9 121,7.5"/>
		<polygon points="127,4.5 130,3 133,4.5 133,7.5 130,9 127,7.5"/>
		<polygon points="133,4.5 136,3 139,4.5 139,7.5 136,9 133,7.5"/>
		<polygon points="139,4.5 142,3 145,4.5 145,7.5 142,9 139,7.5"/>
		<polygon points="145,4.5 148,3 151,4.5 151,7.5 148,9 145,7.5"/>
		<polygon points="151,4.5 154,3 157,4.5 157,7.5 154,9 151,7.5"/>
		<polygon points="157,4.5 160,3 163,4.5 163,7.5 160,9 157,7.5"/>
		<polygon points="163,4.5 166,3 169,4.5 169,7.5 166,9 163,7.5"/>
		<polygon points="169,4.5 172,3 175,4.5 175,7.5 172,9 169,7.5"/>
		<polygon points="175,4.5 178,3 181,4.5 181,7.5 178,9 175,7.5"/>
		<polygon points="181,4.5 184,3 187,4.5 187,7.5 184,9 181,7.5"/>
		<polygon points="187,4.5 190,3 193,4.5 193,7.5 190,9 187,7.5"/>
		<polygon points="193,4.5 196,3 199,4.5 199,7.5 196,9 193,7.5"/>
		<polygon points="199,4.5 202,3 205,4.5 205,7.5 202,9 199,7.5"/>
		<polygon points="205,4.5 208,3 211,4.5 211,7.5 208,9 205,7.5"/>
		<polygon points="211,4.5 214,3 217,4.5 217,7.5 214,9 211,7.5"/>
		
		<!-- Row 2 (y=9-12) -->
		<polygon points="-14,9 -11,7.5 -8,9 -8,12 -11,13.5 -14,12"/>
		<polygon points="-8,9 -5,7.5 -2,9 -2,12 -5,13.5 -8,12"/>
		<polygon points="-2,9 1,7.5 4,9 4,12 1,13.5 -2,12"/>
		<polygon points="4,9 7,7.5 10,9 10,12 7,13.5 4,12"/>
		<polygon points="10,9 13,7.5 16,9 16,12 13,13.5 10,12"/>
		<polygon points="16,9 19,7.5 22,9 22,12 19,13.5 16,12"/>
		<polygon points="22,9 25,7.5 28,9 28,12 25,13.5 22,12"/>
		<polygon points="28,9 31,7.5 34,9 34,12 31,13.5 28,12"/>
		<polygon points="34,9 37,7.5 40,9 40,12 37,13.5 34,12"/>
		<polygon points="40,9 43,7.5 46,9 46,12 43,13.5 40,12"/>
		<polygon points="46,9 49,7.5 52,9 52,12 49,13.5 46,12"/>
		<polygon points="52,9 55,7.5 58,9 58,12 55,13.5 52,12"/>
		<polygon points="58,9 61,7.5 64,9 64,12 61,13.5 58,12"/>
		<polygon points="64,9 67,7.5 70,9 70,12 67,13.5 64,12"/>
		<polygon points="70,9 73,7.5 76,9 76,12 73,13.5 70,12"/>
		<polygon points="76,9 79,7.5 82,9 82,12 79,13.5 76,12"/>
		<polygon points="82,9 85,7.5 88,9 88,12 85,13.5 82,12"/>
		<polygon points="88,9 91,7.5 94,9 94,12 91,13.5 88,12"/>
		<polygon points="94,9 97,7.5 100,9 100,12 97,13.5 94,12"/>
		<polygon points="100,9 103,7.5 106,9 106,12 103,13.5 100,12"/>
		<polygon points="106,9 109,7.5 112,9 112,12 109,13.5 106,12"/>
		<polygon points="112,9 115,7.5 118,9 118,12 115,13.5 112,12"/>
		<polygon points="118,9 121,7.5 124,9 124,12 121,13.5 118,12"/>
		<polygon points="124,9 127,7.5 130,9 130,12 127,13.5 124,12"/>
		<polygon points="130,9 133,7.5 136,9 136,12 133,13.5 130,12"/>
		<polygon points="136,9 139,7.5 142,9 142,12 139,13.5 136,12"/>
		<polygon points="142,9 145,7.5 148,9 148,12 145,13.5 142,12"/>
		<polygon points="148,9 151,7.5 154,9 154,12 151,13.5 148,12"/>
		<polygon points="154,9 157,7.5 160,9 160,12 157,13.5 154,12"/>
		<polygon points="160,9 163,7.5 166,9 166,12 163,13.5 160,12"/>
		<polygon points="166,9 169,7.5 172,9 172,12 169,13.5 166,12"/>
		<polygon points="172,9 175,7.5 178,9 178,12 175,13.5 172,12"/>
		<polygon points="178,9 181,7.5 184,9 184,12 181,13.5 178,12"/>
		<polygon points="184,9 187,7.5 190,9 190,12 187,13.5 184,12"/>
		<polygon points="190,9 193,7.5 196,9 196,12 193,13.5 190,12"/>
		<polygon points="196,9 199,7.5 202,9 202,12 199,13.5 196,12"/>
		<polygon points="202,9 205,7.5 208,9 208,12 205,13.5 202,12"/>
		<polygon points="208,9 211,7.5 214,9 214,12 211,13.5 208,12"/>
		<polygon points="214,9 217,7.5 220,9 220,12 217,13.5 214,12"/>
		<polygon points="220,9 223,7.5 226,9 226,12 223,13.5 220,12"/>
		<polygon points="226,9 229,7.5 232,9 232,12 229,13.5 226,12"/>
		
		<!-- Row 3 (offset, y=13.5-16.5) -->
		<polygon points="-11,13.5 -8,12 -5,13.5 -5,16.5 -8,18 -11,16.5"/>
		<polygon points="-5,13.5 -2,12 1,13.5 1,16.5 -2,18 -5,16.5"/>
		<polygon points="1,13.5 4,12 7,13.5 7,16.5 4,18 1,16.5"/>
		<polygon points="7,13.5 10,12 13,13.5 13,16.5 10,18 7,16.5"/>
		<polygon points="13,13.5 16,12 19,13.5 19,16.5 16,18 13,16.5"/>
		<polygon points="19,13.5 22,12 25,13.5 25,16.5 22,18 19,16.5"/>
		<polygon points="25,13.5 28,12 31,13.5 31,16.5 28,18 25,16.5"/>
		<polygon points="31,13.5 34,12 37,13.5 37,16.5 34,18 31,16.5"/>
		<polygon points="37,13.5 40,12 43,13.5 43,16.5 40,18 37,16.5"/>
		<polygon points="43,13.5 46,12 49,13.5 49,16.5 46,18 43,16.5"/>
		<polygon points="49,13.5 52,12 55,13.5 55,16.5 52,18 49,16.5"/>
		<polygon points="55,13.5 58,12 61,13.5 61,16.5 58,18 55,16.5"/>
		<polygon points="61,13.5 64,12 67,13.5 67,16.5 64,18 61,16.5"/>
		<polygon points="67,13.5 70,12 73,13.5 73,16.5 70,18 67,16.5"/>
		<polygon points="73,13.5 76,12 79,13.5 79,16.5 76,18 73,16.5"/>
		<polygon points="79,13.5 82,12 85,13.5 85,16.5 82,18 79,16.5"/>
		<polygon points="85,13.5 88,12 91,13.5 91,16.5 88,18 85,16.5"/>
		<polygon points="91,13.5 94,12 97,13.5 97,16.5 94,18 91,16.5"/>
		<polygon points="97,13.5 100,12 103,13.5 103,16.5 100,18 97,16.5"/>
		<polygon points="103,13.5 106,12 109,13.5 109,16.5 106,18 103,16.5"/>
		<polygon points="109,13.5 112,12 115,13.5 115,16.5 112,18 109,16.5"/>
		<polygon points="115,13.5 118,12 121,13.5 121,16.5 118,18 115,16.5"/>
		<polygon points="121,13.5 124,12 127,13.5 127,16.5 124,18 121,16.5"/>
		<polygon points="127,13.5 130,12 133,13.5 133,16.5 130,18 127,16.5"/>
		<polygon points="133,13.5 136,12 139,13.5 139,16.5 136,18 133,16.5"/>
		<polygon points="139,13.5 142,12 145,13.5 145,16.5 142,18 139,16.5"/>
		<polygon points="145,13.5 148,12 151,13.5 151,16.5 148,18 145,16.5"/>
		<polygon points="151,13.5 154,12 157,13.5 157,16.5 154,18 151,16.5"/>
		<polygon points="157,13.5 160,12 163,13.5 163,16.5 160,18 157,16.5"/>
		<polygon points="163,13.5 166,12 169,13.5 169,16.5 166,18 163,16.5"/>
		<polygon points="169,13.5 172,12 175,13.5 175,16.5 172,18 169,16.5"/>
		<polygon points="175,13.5 178,12 181,13.5 181,16.5 178,18 175,16.5"/>
		<polygon points="181,13.5 184,12 187,13.5 187,16.5 184,18 181,16.5"/>
		<polygon points="187,13.5 190,12 193,13.5 193,16.5 190,18 187,16.5"/>
		<polygon points="193,13.5 196,12 199,13.5 199,16.5 196,18 193,16.5"/>
		<polygon points="199,13.5 202,12 205,13.5 205,16.5 202,18 199,16.5"/>
		<polygon points="205,13.5 208,12 211,13.5 211,16.5 208,18 205,16.5"/>
		<polygon points="211,13.5 214,12 217,13.5 217,16.5 214,18 211,16.5"/>
		<polygon points="217,13.5 220,12 223,13.5 223,16.5 220,18 217,16.5"/>
		<polygon points="223,13.5 226,12 229,13.5 229,16.5 226,18 223,16.5"/>
		
		<!-- Row 4 (y=18-21) -->
		<polygon points="-14,18 -11,16.5 -8,18 -8,21 -11,22.5 -14,21"/>
		<polygon points="-8,18 -5,16.5 -2,18 -2,21 -5,22.5 -8,21"/>
		<polygon points="-2,18 1,16.5 4,18 4,21 1,22.5 -2,21"/>
		<polygon points="4,18 7,16.5 10,18 10,21 7,22.5 4,21"/>
		<polygon points="10,18 13,16.5 16,18 16,21 13,22.5 10,21"/>
		<polygon points="16,18 19,16.5 22,18 22,21 19,22.5 16,21"/>
		<polygon points="22,18 25,16.5 28,18 28,21 25,22.5 22,21"/>
		<polygon points="28,18 31,16.5 34,18 34,21 31,22.5 28,21"/>
		<polygon points="34,18 37,16.5 40,18 40,21 37,22.5 34,21"/>
		<polygon points="40,18 43,16.5 46,18 46,21 43,22.5 40,21"/>
		<polygon points="46,18 49,16.5 52,18 52,21 49,22.5 46,21"/>
		<polygon points="52,18 55,16.5 58,18 58,21 55,22.5 52,21"/>
		<polygon points="58,18 61,16.5 64,18 64,21 61,22.5 58,21"/>
		<polygon points="64,18 67,16.5 70,18 70,21 67,22.5 64,21"/>
		<polygon points="70,18 73,16.5 76,18 76,21 73,22.5 70,21"/>
		<polygon points="76,18 79,16.5 82,18 82,21 79,22.5 76,21"/>
		<polygon points="82,18 85,16.5 88,18 88,21 85,22.5 82,21"/>
		<polygon points="88,18 91,16.5 94,18 94,21 91,22.5 88,21"/>
		<polygon points="94,18 97,16.5 100,18 100,21 97,22.5 94,21"/>
		<polygon points="100,18 103,16.5 106,18 106,21 103,22.5 100,21"/>
		<polygon points="106,18 109,16.5 112,18 112,21 109,22.5 106,21"/>
		<polygon points="112,18 115,16.5 118,18 118,21 115,22.5 112,21"/>
		<polygon points="118,18 121,16.5 124,18 124,21 121,22.5 118,21"/>
		<polygon points="124,18 127,16.5 130,18 130,21 127,22.5 124,21"/>
		<polygon points="130,18 133,16.5 136,18 136,21 133,22.5 130,21"/>
		<polygon points="136,18 139,16.5 142,18 142,21 139,22.5 136,21"/>
		<polygon points="142,18 145,16.5 148,18 148,21 145,22.5 142,21"/>
		<polygon points="148,18 151,16.5 154,18 154,21 151,22.5 148,21"/>
		<polygon points="154,18 157,16.5 160,18 160,21 157,22.5 154,21"/>
		<polygon points="160,18 163,16.5 166,18 166,21 163,22.5 160,21"/>
		<polygon points="166,18 169,16.5 172,18 172,21 169,22.5 166,21"/>
		<polygon points="172,18 175,16.5 178,18 178,21 175,22.5 172,21"/>
		<polygon points="178,18 181,16.5 184,18 184,21 181,22.5 178,21"/>
		<polygon points="184,18 187,16.5 190,18 190,21 187,22.5 184,21"/>
		<polygon points="190,18 193,16.5 196,18 196,21 193,22.5 190,21"/>
		<polygon points="196,18 199,16.5 202,18 202,21 199,22.5 196,21"/>
		<polygon points="202,18 205,16.5 208,18 208,21 205,22.5 202,21"/>
		<polygon points="208,18 211,16.5 214,18 214,21 211,22.5 208,21"/>
		<polygon points="214,18 217,16.5 220,18 220,21 217,22.5 214,21"/>
		<polygon points="220,18 223,16.5 226,18 226,21 223,22.5 220,21"/>
		<polygon points="226,18 229,16.5 232,18 232,21 229,22.5 226,21"/>
		
		<!-- Row 5 (offset, y=22.5-25.5) -->
		<polygon points="-11,22.5 -8,21 -5,22.5 -5,25.5 -8,27 -11,25.5"/>
		<polygon points="-5,22.5 -2,21 1,22.5 1,25.5 -2,27 -5,25.5"/>
		<polygon points="1,22.5 4,21 7,22.5 7,25.5 4,27 1,25.5"/>
		<polygon points="7,22.5 10,21 13,22.5 13,25.5 10,27 7,25.5"/>
		<polygon points="13,22.5 16,21 19,22.5 19,25.5 16,27 13,25.5"/>
		<polygon points="19,22.5 22,21 25,22.5 25,25.5 22,27 19,25.5"/>
		<polygon points="25,22.5 28,21 31,22.5 31,25.5 28,27 25,25.5"/>
		<polygon points="31,22.5 34,21 37,22.5 37,25.5 34,27 31,25.5"/>
		<polygon points="37,22.5 40,21 43,22.5 43,25.5 40,27 37,25.5"/>
		<polygon points="43,22.5 46,21 49,22.5 49,25.5 46,27 43,25.5"/>
		<polygon points="49,22.5 52,21 55,22.5 55,25.5 52,27 49,25.5"/>
		<polygon points="55,22.5 58,21 61,22.5 61,25.5 58,27 55,25.5"/>
		<polygon points="61,22.5 64,21 67,22.5 67,25.5 64,27 61,25.5"/>
		<polygon points="67,22.5 70,21 73,22.5 73,25.5 70,27 67,25.5"/>
		<polygon points="73,22.5 76,21 79,22.5 79,25.5 76,27 73,25.5"/>
		<polygon points="79,22.5 82,21 85,22.5 85,25.5 82,27 79,25.5"/>
		<polygon points="85,22.5 88,21 91,22.5 91,25.5 88,27 85,25.5"/>
		<polygon points="91,22.5 94,21 97,22.5 97,25.5 94,27 91,25.5"/>
		<polygon points="97,22.5 100,21 103,22.5 103,25.5 100,27 97,25.5"/>
		<polygon points="103,22.5 106,21 109,22.5 109,25.5 106,27 103,25.5"/>
		<polygon points="109,22.5 112,21 115,22.5 115,25.5 112,27 109,25.5"/>
		<polygon points="115,22.5 118,21 121,22.5 121,25.5 118,27 115,25.5"/>
		<polygon points="121,22.5 124,21 127,22.5 127,25.5 124,27 121,25.5"/>
		<polygon points="127,22.5 130,21 133,22.5 133,25.5 130,27 127,25.5"/>
		<polygon points="133,22.5 136,21 139,22.5 139,25.5 136,27 133,25.5"/>
		<polygon points="139,22.5 142,21 145,22.5 145,25.5 142,27 139,25.5"/>
		<polygon points="145,22.5 148,21 151,22.5 151,25.5 148,27 145,25.5"/>
		<polygon points="151,22.5 154,21 157,22.5 157,25.5 154,27 151,25.5"/>
		<polygon points="157,22.5 160,21 163,22.5 163,25.5 160,27 157,25.5"/>
		<polygon points="163,22.5 166,21 169,22.5 169,25.5 166,27 163,25.5"/>
		<polygon points="169,22.5 172,21 175,22.5 175,25.5 172,27 169,25.5"/>
		<polygon points="175,22.5 178,21 181,22.5 181,25.5 178,27 175,25.5"/>
		<polygon points="181,22.5 184,21 187,22.5 187,25.5 184,27 181,25.5"/>
		<polygon points="187,22.5 190,21 193,22.5 193,25.5 190,27 187,25.5"/>
		<polygon points="193,22.5 196,21 199,22.5 199,25.5 196,27 193,25.5"/>
		<polygon points="199,22.5 202,21 205,22.5 205,25.5 202,27 199,25.5"/>
		<polygon points="205,22.5 208,21 211,22.5 211,25.5 208,27 205,25.5"/>
		<polygon points="211,22.5 214,21 217,22.5 217,25.5 214,27 211,25.5"/>
		<polygon points="217,22.5 220,21 223,22.5 223,25.5 220,27 217,25.5"/>
		<polygon points="223,22.5 226,21 229,22.5 229,25.5 226,27 223,25.5"/>
		
		<!-- Row 6 (y=27-30) -->
		<polygon points="-14,27 -11,25.5 -8,27 -8,30 -11,31.5 -14,30"/>
		<polygon points="-8,27 -5,25.5 -2,27 -2,30 -5,31.5 -8,30"/>
		<polygon points="-2,27 1,25.5 4,27 4,30 1,31.5 -2,30"/>
		<polygon points="4,27 7,25.5 10,27 10,30 7,31.5 4,30"/>
		<polygon points="10,27 13,25.5 16,27 16,30 13,31.5 10,30"/>
		<polygon points="16,27 19,25.5 22,27 22,30 19,31.5 16,30"/>
		<polygon points="22,27 25,25.5 28,27 28,30 25,31.5 22,30"/>
		<polygon points="28,27 31,25.5 34,27 34,30 31,31.5 28,30"/>
		<polygon points="34,27 37,25.5 40,27 40,30 37,31.5 34,30"/>
		<polygon points="40,27 43,25.5 46,27 46,30 43,31.5 40,30"/>
		<polygon points="46,27 49,25.5 52,27 52,30 49,31.5 46,30"/>
		<polygon points="52,27 55,25.5 58,27 58,30 55,31.5 52,30"/>
		<polygon points="58,27 61,25.5 64,27 64,30 61,31.5 58,30"/>
		<polygon points="64,27 67,25.5 70,27 70,30 67,31.5 64,30"/>
		<polygon points="70,27 73,25.5 76,27 76,30 73,31.5 70,30"/>
		<polygon points="76,27 79,25.5 82,27 82,30 79,31.5 76,30"/>
		<polygon points="82,27 85,25.5 88,27 88,30 85,31.5 82,30"/>
		<polygon points="88,27 91,25.5 94,27 94,30 91,31.5 88,30"/>
		<polygon points="94,27 97,25.5 100,27 100,30 97,31.5 94,30"/>
		<polygon points="100,27 103,25.5 106,27 106,30 103,31.5 100,30"/>
		<polygon points="106,27 109,25.5 112,27 112,30 109,31.5 106,30"/>
		<polygon points="112,27 115,25.5 118,27 118,30 115,31.5 112,30"/>
		<polygon points="118,27 121,25.5 124,27 124,30 121,31.5 118,30"/>
		<polygon points="124,27 127,25.5 130,27 130,30 127,31.5 124,30"/>
		<polygon points="130,27 133,25.5 136,27 136,30 133,31.5 130,30"/>
		<polygon points="136,27 139,25.5 142,27 142,30 139,31.5 136,30"/>
		<polygon points="142,27 145,25.5 148,27 148,30 145,31.5 142,30"/>
		<polygon points="148,27 151,25.5 154,27 154,30 151,31.5 148,30"/>
		<polygon points="154,27 157,25.5 160,27 160,30 157,31.5 154,30"/>
		<polygon points="160,27 163,25.5 166,27 166,30 163,31.5 160,30"/>
		<polygon points="166,27 169,25.5 172,27 172,30 169,31.5 166,30"/>
		<polygon points="172,27 175,25.5 178,27 178,30 175,31.5 172,30"/>
		<polygon points="178,27 181,25.5 184,27 184,30 181,31.5 178,30"/>
		<polygon points="184,27 187,25.5 190,27 190,30 187,31.5 184,30"/>
		<polygon points="190,27 193,25.5 196,27 196,30 193,31.5 190,30"/>
		<polygon points="196,27 199,25.5 202,27 202,30 199,31.5 196,30"/>
		<polygon points="202,27 205,25.5 208,27 208,30 205,31.5 202,30"/>
		<polygon points="208,27 211,25.5 214,27 214,30 211,31.5 208,30"/>
		<polygon points="214,27 217,25.5 220,27 220,30 217,31.5 214,30"/>
		<polygon points="220,27 223,25.5 226,27 226,30 223,31.5 220,30"/>
		<polygon points="226,27 229,25.5 232,27 232,30 229,31.5 226,30"/>
		
		<!-- Row 7 (offset, y=31.5-34.5) -->
		<polygon points="-11,31.5 -8,30 -5,31.5 -5,34.5 -8,36 -11,34.5"/>
		<polygon points="-5,31.5 -2,30 1,31.5 1,34.5 -2,36 -5,34.5"/>
		<polygon points="1,31.5 4,30 7,31.5 7,34.5 4,36 1,34.5"/>
		<polygon points="7,31.5 10,30 13,31.5 13,34.5 10,36 7,34.5"/>
		<polygon points="13,31.5 16,30 19,31.5 19,34.5 16,36 13,34.5"/>
		<polygon points="19,31.5 22,30 25,31.5 25,34.5 22,36 19,34.5"/>
		<polygon points="25,31.5 28,30 31,31.5 31,34.5 28,36 25,34.5"/>
		<polygon points="31,31.5 34,30 37,31.5 37,34.5 34,36 31,34.5"/>
		<polygon points="37,31.5 40,30 43,31.5 43,34.5 40,36 37,34.5"/>
		<polygon points="43,31.5 46,30 49,31.5 49,34.5 46,36 43,34.5"/>
		<polygon points="49,31.5 52,30 55,31.5 55,34.5 52,36 49,34.5"/>
		<polygon points="55,31.5 58,30 61,31.5 61,34.5 58,36 55,34.5"/>
		<polygon points="61,31.5 64,30 67,31.5 67,34.5 64,36 61,34.5"/>
		<polygon points="67,31.5 70,30 73,31.5 73,34.5 70,36 67,34.5"/>
		<polygon points="73,31.5 76,30 79,31.5 79,34.5 76,36 73,34.5"/>
		<polygon points="79,31.5 82,30 85,31.5 85,34.5 82,36 79,34.5"/>
		<polygon points="85,31.5 88,30 91,31.5 91,34.5 88,36 85,34.5"/>
		<polygon points="91,31.5 94,30 97,31.5 97,34.5 94,36 91,34.5"/>
		<polygon points="97,31.5 100,30 103,31.5 103,34.5 100,36 97,34.5"/>
		<polygon points="103,31.5 106,30 109,31.5 109,34.5 106,36 103,34.5"/>
		<polygon points="109,31.5 112,30 115,31.5 115,34.5 112,36 109,34.5"/>
		<polygon points="115,31.5 118,30 121,31.5 121,34.5 118,36 115,34.5"/>
		<polygon points="121,31.5 124,30 127,31.5 127,34.5 124,36 121,34.5"/>
		<polygon points="127,31.5 130,30 133,31.5 133,34.5 130,36 127,34.5"/>
		<polygon points="133,31.5 136,30 139,31.5 139,34.5 136,36 133,34.5"/>
		<polygon points="139,31.5 142,30 145,31.5 145,34.5 142,36 139,34.5"/>
		<polygon points="145,31.5 148,30 151,31.5 151,34.5 148,36 145,34.5"/>
		<polygon points="151,31.5 154,30 157,31.5 157,34.5 154,36 151,34.5"/>
		<polygon points="157,31.5 160,30 163,31.5 163,34.5 160,36 157,34.5"/>
		<polygon points="163,31.5 166,30 169,31.5 169,34.5 166,36 163,34.5"/>
		<polygon points="169,31.5 172,30 175,31.5 175,34.5 172,36 169,34.5"/>
		<polygon points="175,31.5 178,30 181,31.5 181,34.5 178,36 175,34.5"/>
		<polygon points="181,31.5 184,30 187,31.5 187,34.5 184,36 181,34.5"/>
		<polygon points="187,31.5 190,30 193,31.5 193,34.5 190,36 187,34.5"/>
		<polygon points="193,31.5 196,30 199,31.5 199,34.5 196,36 193,34.5"/>
		<polygon points="199,31.5 202,30 205,31.5 205,34.5 202,36 199,34.5"/>
		<polygon points="205,31.5 208,30 211,31.5 211,34.5 208,36 205,34.5"/>
		<polygon points="211,31.5 214,30 217,31.5 217,34.5 214,36 211,34.5"/>
		<polygon points="217,31.5 220,30 223,31.5 223,34.5 220,36 217,34.5"/>
		<polygon points="223,31.5 226,30 229,31.5 229,34.5 226,36 223,34.5"/>
		
		<!-- Row 8 (y=36-39) -->
		<polygon points="-14,36 -11,34.5 -8,36 -8,39 -11,40.5 -14,39"/>
		<polygon points="-8,36 -5,34.5 -2,36 -2,39 -5,40.5 -8,39"/>
		<polygon points="-2,36 1,34.5 4,36 4,39 1,40.5 -2,39"/>
		<polygon points="4,36 7,34.5 10,36 10,39 7,40.5 4,39"/>
		<polygon points="10,36 13,34.5 16,36 16,39 13,40.5 10,39"/>
		<polygon points="16,36 19,34.5 22,36 22,39 19,40.5 16,39"/>
		<polygon points="22,36 25,34.5 28,36 28,39 25,40.5 22,39"/>
		<polygon points="28,36 31,34.5 34,36 34,39 31,40.5 28,39"/>
		<polygon points="34,36 37,34.5 40,36 40,39 37,40.5 34,39"/>
		<polygon points="40,36 43,34.5 46,36 46,39 43,40.5 40,39"/>
		<polygon points="46,36 49,34.5 52,36 52,39 49,40.5 46,39"/>
		<polygon points="52,36 55,34.5 58,36 58,39 55,40.5 52,39"/>
		<polygon points="58,36 61,34.5 64,36 64,39 61,40.5 58,39"/>
		<polygon points="64,36 67,34.5 70,36 70,39 67,40.5 64,39"/>
		<polygon points="70,36 73,34.5 76,36 76,39 73,40.5 70,39"/>
		<polygon points="76,36 79,34.5 82,36 82,39 79,40.5 76,39"/>
		<polygon points="82,36 85,34.5 88,36 88,39 85,40.5 82,39"/>
		<polygon points="88,36 91,34.5 94,36 94,39 91,40.5 88,39"/>
		<polygon points="94,36 97,34.5 100,36 100,39 97,40.5 94,39"/>
		<polygon points="100,36 103,34.5 106,36 106,39 103,40.5 100,39"/>
		<polygon points="106,36 109,34.5 112,36 112,39 109,40.5 106,39"/>
		<polygon points="112,36 115,34.5 118,36 118,39 115,40.5 112,39"/>
		<polygon points="118,36 121,34.5 124,36 124,39 121,40.5 118,39"/>
		<polygon points="124,36 127,34.5 130,36 130,39 127,40.5 124,39"/>
		<polygon points="130,36 133,34.5 136,36 136,39 133,40.5 130,39"/>
		<polygon points="136,36 139,34.5 142,36 142,39 139,40.5 136,39"/>
		<polygon points="142,36 145,34.5 148,36 148,39 145,40.5 142,39"/>
		<polygon points="148,36 151,34.5 154,36 154,39 151,40.5 148,39"/>
		<polygon points="154,36 157,34.5 160,36 160,39 157,40.5 154,39"/>
		<polygon points="160,36 163,34.5 166,36 166,39 163,40.5 160,39"/>
		<polygon points="166,36 169,34.5 172,36 172,39 169,40.5 166,39"/>
		<polygon points="172,36 175,34.5 178,36 178,39 175,40.5 172,39"/>
		<polygon points="178,36 181,34.5 184,36 184,39 181,40.5 178,39"/>
		<polygon points="184,36 187,34.5 190,36 190,39 187,40.5 184,39"/>
		<polygon points="190,36 193,34.5 196,36 196,39 193,40.5 190,39"/>
		<polygon points="196,36 199,34.5 202,36 202,39 199,40.5 196,39"/>
		<polygon points="202,36 205,34.5 208,36 208,39 205,40.5 202,39"/>
		<polygon points="208,36 211,34.5 214,36 214,39 211,40.5 208,39"/>
		<polygon points="214,36 217,34.5 220,36 220,39 217,40.5 214,39"/>
		<polygon points="220,36 223,34.5 226,36 226,39 223,40.5 220,39"/>
		<polygon points="226,36 229,34.5 232,36 232,39 229,40.5 226,39"/>
	</g>
	
	<!-- Text -->
	<text x="185" y="32" font-family="Arial, sans-serif" font-size="10" fill="#9ca3af" text-anchor="end" font-weight="normal">しろはのおうち</text>
</svg>